<?xml version="1.0" encoding="UTF-8"?>
<!DOCTYPE svg PUBLIC "-//W3C//DTD SVG 1.1//EN" "http://www.w3.org/Graphics/SVG/1.1/DTD/svg11.dtd">
<!-- Creator: CorelDRAW -->
<svg xmlns="http://www.w3.org/2000/svg" xml:space="preserve" width="100px" height="100px" version="1.1" shape-rendering="geometricPrecision" text-rendering="geometricPrecision" image-rendering="optimizeQuality" fill-rule="evenodd" clip-rule="evenodd"
viewBox="0 0 5.388 5.388"
 xmlns:xlink="http://www.w3.org/1999/xlink"
 xmlns:xodm="http://www.corel.com/coreldraw/odm/2003">
 <g id="Layer_x0020_1">
  <metadata id="CorelCorpID_0Corel-Layer"/>
  <g id="_2311010678720">
   <path fill="#F7931A" d="M2.694 0c1.488,0 2.694,1.206 2.694,2.694 0,1.488 -1.206,2.694 -2.694,2.694 -1.488,0 -2.694,-1.206 -2.694,-2.694 0,-1.488 1.206,-2.694 2.694,-2.694z"/>
   <path fill="white" d="M4.001 2.272c0.059,-0.395 -0.241,-0.607 -0.652,-0.748l0.133 -0.534 -0.325 -0.081 -0.13 0.52c-0.085,-0.022 -0.173,-0.042 -0.26,-0.062l0.13 -0.523 -0.325 -0.081 -0.133 0.534c-0.071,-0.016 -0.14,-0.032 -0.208,-0.049l0.001 -0.002 -0.449 -0.112 -0.086 0.348c0,0 0.241,0.055 0.236,0.058 0.132,0.033 0.156,0.121 0.152,0.19l-0.152 0.608c0.009,0.003 0.021,0.006 0.034,0.011 -0.011,-0.003 -0.023,-0.005 -0.035,-0.008l-0.212 0.852c-0.017,0.04 -0.057,0.1 -0.149,0.078 0.003,0.004 -0.237,-0.059 -0.237,-0.059l-0.161 0.372 0.423 0.105c0.079,0.02 0.156,0.041 0.232,0.06l-0.135 0.541 0.325 0.081 0.133 -0.535c0.089,0.024 0.175,0.046 0.26,0.067l-0.133 0.532 0.325 0.081 0.135 -0.539c0.554,0.105 0.971,0.063 1.147,-0.439 0.141,-0.404 -0.007,-0.637 -0.299,-0.789 0.212,-0.049 0.372,-0.188 0.415,-0.477l0 0 0 0zm-0.643 -0.006c-0.091,0.367 -0.657,0.181 -0.841,0.135l0.162 -0.649c0.184,0.045 0.775,0.131 0.68,0.514l-0.001 0 0 0zm-0.1 1.048c-0.101,0.404 -0.781,0.185 -1.001,0.131l0.179 -0.716c0.22,0.055 0.927,0.164 0.822,0.585l0 0z"/>
  </g>
 </g>
</svg>
